<svg xmlns="http://www.w3.org/2000/svg" viewBox="0 0 1024 1024" width="1024" height="1024" fill="none">
  <!-- CoachingSage AppIcon Dark v5 2026-07-01 — chronometre dynamique -->
  <rect width="1024" height="1024" fill="#0C1F38"/>
  <circle cx="478" cy="478" r="400" fill="none" stroke="#D4A85A" stroke-width="36"/>
  <circle cx="478" cy="478" r="320" fill="#1E5090"/>
  <rect x="452" y="309" width="52" height="30" rx="12" fill="#F2EDE7"/><rect x="470" y="291" width="16" height="26" rx="7" fill="#F2EDE7"/><g transform="rotate(45 588 395)"><rect x="575" y="379" width="26" height="24" rx="9" fill="#F2EDE7"/></g><circle cx="478" cy="505" r="150" fill="none" stroke="#F2EDE7" stroke-width="28"/><path d="M478 385 L478 369" stroke="#F2EDE7" stroke-width="12" stroke-linecap="round"/><path d="M598 505 L614 505" stroke="#F2EDE7" stroke-width="12" stroke-linecap="round"/><path d="M478 625 L478 641" stroke="#F2EDE7" stroke-width="12" stroke-linecap="round"/><path d="M358 505 L342 505" stroke="#F2EDE7" stroke-width="12" stroke-linecap="round"/><path d="M478 505 L531 430" stroke="#7BC142" stroke-width="22" stroke-linecap="round"/><circle cx="478" cy="505" r="14" fill="#F2EDE7"/>
  <g transform="translate(800,800)"><circle r="78" fill="#0C1F38"/><circle r="74" fill="#163A63"/>
   <path d="M0 -70 L3 -9 L70 0 L3 9 L0 70 L-3 9 L-70 0 L-3 -9 Z" fill="#EDE8E0"/>
   <circle r="8" fill="#D4A85A"/><circle r="4" fill="#F0C87A"/></g>
</svg>